<svg width="168" height="26" viewBox="0 0 168 26" fill="none" xmlns="http://www.w3.org/2000/svg">
<path d="M15.58 6.04007H6.77045V10.1738H14.5429V15.5307H6.77045V20.0965H15.58V25.7426H0V0.397156H15.58V6.04007Z" fill="#F7FAFA"/>
<path d="M30.2317 0.142975C36.3459 0.142975 40.6995 3.8096 41.9096 9.56373H34.6205C33.7562 7.65734 32.1332 6.61517 30.1293 6.61517C27.021 6.61517 24.9818 9.13161 24.9818 13.0175C24.9818 16.9033 27.021 19.4547 30.1293 19.4547C32.1332 19.4547 33.7562 18.4126 34.6205 16.5062H41.9096C40.6995 22.2603 36.3459 25.9269 30.2317 25.9269C22.9075 25.9269 18.1057 20.6049 18.1057 13.0175C18.1057 5.43004 22.9075 0.142975 30.2317 0.142975Z" fill="#F7FAFA"/>
<path d="M56.8014 26C49.8933 26 44.2944 20.6049 44.2944 12.9825C44.2944 5.36014 49.8901 0 56.8014 0C63.7127 0 69.2731 5.35696 69.2731 12.9825C69.2731 20.6081 63.7095 26 56.8014 26ZM56.8014 19.4547C60.2906 19.4547 62.397 16.9002 62.397 12.9825C62.397 9.06489 60.2906 6.47538 56.8014 6.47538C53.3121 6.47538 51.2057 8.99181 51.2057 12.9825C51.2057 16.9732 53.2801 19.4547 56.8014 19.4547Z" fill="#F7FAFA"/>
<path d="M94.8727 0.397156V25.7458H88.1023L79.0846 11.5781V25.7458H72.3141V0.397156H79.0846L88.1023 14.7459V0.397156H94.8727Z" fill="#2BDE73"/>
<path d="M114.326 6.04007H105.517V10.1738H113.289V15.5307H105.517V20.0965H114.326V25.7426H98.7462V0.397156H114.326V6.04007Z" fill="#2BDE73"/>
<path d="M129.781 18.5905L125.738 25.7458H118.033L125.943 12.7633L117.758 0.397156H125.738L130.332 7.37455L134.269 0.397156H141.975L134.167 13.1636L142.493 25.749H134.513L129.778 18.5937L129.781 18.5905Z" fill="#2BDE73"/>
<path d="M155.528 26C148.62 26 143.021 20.6049 143.021 12.9825C143.021 5.36014 148.62 0 155.528 0C162.436 0 168 5.35696 168 12.9825C168 20.6081 162.436 26 155.528 26ZM155.528 19.4547C159.018 19.4547 161.124 16.9002 161.124 12.9825C161.124 9.06489 159.018 6.47538 155.528 6.47538C152.039 6.47538 149.933 8.99181 149.933 12.9825C149.933 16.9732 152.007 19.4547 155.528 19.4547Z" fill="#2BDE73"/>
</svg>
